<svg width="15" height="15" viewBox="0 0 15 15" fill="none" xmlns="http://www.w3.org/2000/svg">
<path d="M7.5 0.109375C11.4844 0.109375 14.7656 3.39062 14.7656 7.375C14.7656 11.3887 11.4844 14.6406 7.5 14.6406C3.48633 14.6406 0.234375 11.3887 0.234375 7.375C0.234375 3.39062 3.48633 0.109375 7.5 0.109375ZM12.2754 3.47852C12.1582 3.6543 11.1328 4.97266 8.81836 5.91016C9.05273 6.37891 9.19922 6.73047 9.375 7.14062C11.4258 6.87695 13.4766 7.28711 13.6816 7.3457C13.6816 5.88086 13.1543 4.5332 12.2754 3.47852ZM11.6016 2.74609C10.0781 1.39844 7.99805 0.900391 6.03516 1.36914C6.21094 1.60352 7.32422 3.12695 8.34961 5.00195C10.5469 4.18164 11.4844 2.92188 11.6016 2.74609ZM4.83398 1.7793C3.10547 2.59961 1.81641 4.21094 1.40625 6.11523C1.69922 6.14453 4.24805 6.14453 7.14844 5.38281C6.12305 3.53711 5.00977 2.01367 4.83398 1.7793ZM1.28906 7.4043C1.28906 8.98633 1.875 10.4512 2.87109 11.5352C3.86719 9.83594 5.91797 8.01953 8.17383 7.375C7.99805 7.02344 7.85156 6.67188 7.64648 6.32031C4.57031 7.25781 1.55273 7.22852 1.28906 7.19922C1.28906 7.28711 1.28906 7.3457 1.28906 7.4043ZM3.66211 12.2969C5.50781 13.7324 7.91016 13.9668 9.90234 13.1172C9.81445 12.5605 9.46289 10.6562 8.58398 8.40039C6.09375 9.25 4.33594 10.9785 3.66211 12.2969ZM10.957 12.5312C12.334 11.5938 13.3301 10.0996 13.623 8.37109C13.3887 8.3125 11.6895 7.81445 9.75586 8.10742C10.5469 10.3633 10.8984 12.1797 10.957 12.5312Z" fill="#26235C"/>
</svg>
