<svg width="14" height="14" viewBox="0 0 14 14" fill="none" xmlns="http://www.w3.org/2000/svg">
<path d="M3.36719 14H0.642578V5.24023H3.36719V14ZM1.99023 4.06836C1.14062 4.06836 0.4375 3.33594 0.4375 2.45703C0.4375 1.60742 1.14062 0.904297 1.99023 0.904297C2.86914 0.904297 3.57227 1.60742 3.57227 2.45703C3.57227 3.33594 2.86914 4.06836 1.99023 4.06836ZM13.5332 14H10.8379V9.75195C10.8379 8.72656 10.8086 7.4375 9.40234 7.4375C7.99609 7.4375 7.79102 8.52148 7.79102 9.66406V14H5.06641V5.24023H7.67383V6.44141H7.70312C8.08398 5.76758 8.96289 5.03516 10.2812 5.03516C13.0352 5.03516 13.5625 6.85156 13.5625 9.19531V14H13.5332Z" fill="#26235C"/>
</svg>
